<svg width="32" height="32" viewBox="0 0 32 32" fill="none" xmlns="http://www.w3.org/2000/svg">
<path d="M14.7067 3.45335C15.0681 3.14728 15.5264 2.97931 16 2.97931C16.4736 2.97931 16.9319 3.14728 17.2933 3.45335L27.2933 11.9373C27.5148 12.1251 27.6927 12.3588 27.8147 12.6222C27.9367 12.8856 28 13.1724 28 13.4627V26C28 26.5304 27.7893 27.0392 27.4142 27.4142C27.0391 27.7893 26.5304 28 26 28H18.3333C18.0681 28 17.8138 27.8947 17.6262 27.7071C17.4387 27.5196 17.3333 27.2652 17.3333 27V18.6667H14.6667V27C14.6667 27.2652 14.5613 27.5196 14.3738 27.7071C14.1862 27.8947 13.9319 28 13.6667 28H6C5.46957 28 4.96086 27.7893 4.58579 27.4142C4.21071 27.0392 4 26.5304 4 26V13.4627C4 12.876 4.25867 12.3173 4.70667 11.9373L14.7067 3.45335ZM16 4.97868L6 13.4627V26H12.6667V17.6667C12.6667 17.4015 12.772 17.1471 12.9596 16.9596C13.1471 16.772 13.4015 16.6667 13.6667 16.6667H18.3333C18.5986 16.6667 18.8529 16.772 19.0404 16.9596C19.228 17.1471 19.3333 17.4015 19.3333 17.6667V26H26V13.4627L16 4.97868Z" fill="#BD0062"/>
</svg>
